<mxfile host="app.diagrams.net" agent="Mozilla/5.0 (Windows NT 10.0; Win64; x64) AppleWebKit/537.36 (KHTML, like Gecko) Chrome/130.0.0.0 Safari/537.36" version="24.8.6">
  <diagram name="Page-1" id="KMln4nszbj7r-IwKuGp8">
    <mxGraphModel dx="2153" dy="1926" grid="1" gridSize="10" guides="1" tooltips="1" connect="1" arrows="1" fold="1" page="1" pageScale="1" pageWidth="850" pageHeight="1100" math="0" shadow="0">
      <root>
        <mxCell id="0" />
        <mxCell id="1" parent="0" />
        <mxCell id="3_yhiq4X4fq56zzzLjfd-1" value="" style="whiteSpace=wrap;html=1;aspect=fixed;" vertex="1" parent="1">
          <mxGeometry x="-90" y="-20" width="930" height="930" as="geometry" />
        </mxCell>
        <mxCell id="3_yhiq4X4fq56zzzLjfd-2" value="User" style="shape=umlActor;verticalLabelPosition=bottom;verticalAlign=top;html=1;outlineConnect=0;" vertex="1" parent="1">
          <mxGeometry x="-320" y="380" width="90" height="130" as="geometry" />
        </mxCell>
        <mxCell id="3_yhiq4X4fq56zzzLjfd-3" value="View Profile" style="ellipse;whiteSpace=wrap;html=1;" vertex="1" parent="1">
          <mxGeometry x="330" y="10" width="120" height="50" as="geometry" />
        </mxCell>
        <mxCell id="3_yhiq4X4fq56zzzLjfd-4" value="Edit Profile" style="ellipse;whiteSpace=wrap;html=1;" vertex="1" parent="1">
          <mxGeometry x="330" y="70" width="120" height="50" as="geometry" />
        </mxCell>
        <mxCell id="3_yhiq4X4fq56zzzLjfd-5" value="Create Post" style="ellipse;whiteSpace=wrap;html=1;" vertex="1" parent="1">
          <mxGeometry x="330" y="130" width="120" height="50" as="geometry" />
        </mxCell>
        <mxCell id="3_yhiq4X4fq56zzzLjfd-6" value="Edit Post" style="ellipse;whiteSpace=wrap;html=1;" vertex="1" parent="1">
          <mxGeometry x="330" y="190" width="120" height="50" as="geometry" />
        </mxCell>
        <mxCell id="3_yhiq4X4fq56zzzLjfd-7" value="Like Post" style="ellipse;whiteSpace=wrap;html=1;" vertex="1" parent="1">
          <mxGeometry x="330" y="250" width="120" height="50" as="geometry" />
        </mxCell>
        <mxCell id="3_yhiq4X4fq56zzzLjfd-8" value="Comment Post" style="ellipse;whiteSpace=wrap;html=1;" vertex="1" parent="1">
          <mxGeometry x="330" y="310" width="120" height="50" as="geometry" />
        </mxCell>
        <mxCell id="3_yhiq4X4fq56zzzLjfd-9" value="Delete Post" style="ellipse;whiteSpace=wrap;html=1;" vertex="1" parent="1">
          <mxGeometry x="330" y="370" width="120" height="50" as="geometry" />
        </mxCell>
        <mxCell id="3_yhiq4X4fq56zzzLjfd-10" value="View Friendlist" style="ellipse;whiteSpace=wrap;html=1;" vertex="1" parent="1">
          <mxGeometry x="330" y="430" width="120" height="50" as="geometry" />
        </mxCell>
        <mxCell id="3_yhiq4X4fq56zzzLjfd-11" value="Send Friend Request" style="ellipse;whiteSpace=wrap;html=1;" vertex="1" parent="1">
          <mxGeometry x="330" y="490" width="120" height="50" as="geometry" />
        </mxCell>
        <mxCell id="3_yhiq4X4fq56zzzLjfd-12" value="Acc/Rej Friend Request&amp;nbsp;" style="ellipse;whiteSpace=wrap;html=1;" vertex="1" parent="1">
          <mxGeometry x="330" y="550" width="120" height="50" as="geometry" />
        </mxCell>
        <mxCell id="3_yhiq4X4fq56zzzLjfd-13" value="Send Message" style="ellipse;whiteSpace=wrap;html=1;" vertex="1" parent="1">
          <mxGeometry x="330" y="610" width="120" height="50" as="geometry" />
        </mxCell>
        <mxCell id="3_yhiq4X4fq56zzzLjfd-14" value="Receive Notification&amp;nbsp;" style="ellipse;whiteSpace=wrap;html=1;" vertex="1" parent="1">
          <mxGeometry x="330" y="670" width="120" height="50" as="geometry" />
        </mxCell>
        <mxCell id="3_yhiq4X4fq56zzzLjfd-15" value="Block User" style="ellipse;whiteSpace=wrap;html=1;" vertex="1" parent="1">
          <mxGeometry x="330" y="730" width="120" height="50" as="geometry" />
        </mxCell>
        <mxCell id="3_yhiq4X4fq56zzzLjfd-16" value="Manage Reports&amp;nbsp;" style="ellipse;whiteSpace=wrap;html=1;" vertex="1" parent="1">
          <mxGeometry x="330" y="790" width="120" height="50" as="geometry" />
        </mxCell>
        <mxCell id="3_yhiq4X4fq56zzzLjfd-19" value="" style="endArrow=classic;html=1;rounded=0;entryX=0.167;entryY=1;entryDx=0;entryDy=0;entryPerimeter=0;" edge="1" parent="1" target="3_yhiq4X4fq56zzzLjfd-3">
          <mxGeometry width="50" height="50" relative="1" as="geometry">
            <mxPoint x="-250" y="460" as="sourcePoint" />
            <mxPoint x="480" y="400" as="targetPoint" />
          </mxGeometry>
        </mxCell>
        <mxCell id="3_yhiq4X4fq56zzzLjfd-21" value="" style="endArrow=classic;html=1;rounded=0;entryX=0.083;entryY=1;entryDx=0;entryDy=0;entryPerimeter=0;" edge="1" parent="1" target="3_yhiq4X4fq56zzzLjfd-4">
          <mxGeometry width="50" height="50" relative="1" as="geometry">
            <mxPoint x="-250" y="450" as="sourcePoint" />
            <mxPoint x="270" y="200" as="targetPoint" />
          </mxGeometry>
        </mxCell>
        <mxCell id="3_yhiq4X4fq56zzzLjfd-22" value="" style="endArrow=classic;html=1;rounded=0;entryX=0.083;entryY=0.8;entryDx=0;entryDy=0;entryPerimeter=0;" edge="1" parent="1" target="3_yhiq4X4fq56zzzLjfd-5">
          <mxGeometry width="50" height="50" relative="1" as="geometry">
            <mxPoint x="-250" y="460" as="sourcePoint" />
            <mxPoint x="-10" y="670" as="targetPoint" />
          </mxGeometry>
        </mxCell>
        <mxCell id="3_yhiq4X4fq56zzzLjfd-23" value="" style="endArrow=classic;html=1;rounded=0;entryX=0.083;entryY=0.8;entryDx=0;entryDy=0;entryPerimeter=0;" edge="1" parent="1" target="3_yhiq4X4fq56zzzLjfd-6">
          <mxGeometry width="50" height="50" relative="1" as="geometry">
            <mxPoint x="-230" y="460" as="sourcePoint" />
            <mxPoint x="680" y="220" as="targetPoint" />
          </mxGeometry>
        </mxCell>
        <mxCell id="3_yhiq4X4fq56zzzLjfd-24" value="" style="endArrow=classic;html=1;rounded=0;entryX=0.083;entryY=0.6;entryDx=0;entryDy=0;entryPerimeter=0;" edge="1" parent="1" target="3_yhiq4X4fq56zzzLjfd-7">
          <mxGeometry width="50" height="50" relative="1" as="geometry">
            <mxPoint x="-240" y="460" as="sourcePoint" />
            <mxPoint x="730" y="200" as="targetPoint" />
          </mxGeometry>
        </mxCell>
        <mxCell id="3_yhiq4X4fq56zzzLjfd-25" value="" style="endArrow=classic;html=1;rounded=0;entryX=0;entryY=0.8;entryDx=0;entryDy=0;entryPerimeter=0;" edge="1" parent="1" target="3_yhiq4X4fq56zzzLjfd-8">
          <mxGeometry width="50" height="50" relative="1" as="geometry">
            <mxPoint x="-260" y="470" as="sourcePoint" />
            <mxPoint x="750" y="140" as="targetPoint" />
          </mxGeometry>
        </mxCell>
        <mxCell id="3_yhiq4X4fq56zzzLjfd-26" value="" style="endArrow=classic;html=1;rounded=0;entryX=0;entryY=0.8;entryDx=0;entryDy=0;entryPerimeter=0;" edge="1" parent="1" target="3_yhiq4X4fq56zzzLjfd-9">
          <mxGeometry width="50" height="50" relative="1" as="geometry">
            <mxPoint x="-210" y="480" as="sourcePoint" />
            <mxPoint x="780" y="130" as="targetPoint" />
          </mxGeometry>
        </mxCell>
        <mxCell id="3_yhiq4X4fq56zzzLjfd-27" value="" style="endArrow=classic;html=1;rounded=0;entryX=0.083;entryY=0.6;entryDx=0;entryDy=0;entryPerimeter=0;" edge="1" parent="1" target="3_yhiq4X4fq56zzzLjfd-10">
          <mxGeometry width="50" height="50" relative="1" as="geometry">
            <mxPoint x="-210" y="490" as="sourcePoint" />
            <mxPoint x="800" y="90" as="targetPoint" />
          </mxGeometry>
        </mxCell>
        <mxCell id="3_yhiq4X4fq56zzzLjfd-28" value="" style="endArrow=classic;html=1;rounded=0;entryX=0.083;entryY=0.6;entryDx=0;entryDy=0;entryPerimeter=0;" edge="1" parent="1" target="3_yhiq4X4fq56zzzLjfd-11">
          <mxGeometry width="50" height="50" relative="1" as="geometry">
            <mxPoint x="-220" y="490" as="sourcePoint" />
            <mxPoint x="750" y="160" as="targetPoint" />
          </mxGeometry>
        </mxCell>
        <mxCell id="3_yhiq4X4fq56zzzLjfd-29" value="" style="endArrow=classic;html=1;rounded=0;entryX=0.083;entryY=0.6;entryDx=0;entryDy=0;entryPerimeter=0;" edge="1" parent="1" target="3_yhiq4X4fq56zzzLjfd-12">
          <mxGeometry width="50" height="50" relative="1" as="geometry">
            <mxPoint x="-220" y="490" as="sourcePoint" />
            <mxPoint x="840" y="110" as="targetPoint" />
          </mxGeometry>
        </mxCell>
        <mxCell id="3_yhiq4X4fq56zzzLjfd-30" value="" style="endArrow=classic;html=1;rounded=0;entryX=0;entryY=0.2;entryDx=0;entryDy=0;entryPerimeter=0;" edge="1" parent="1" target="3_yhiq4X4fq56zzzLjfd-13">
          <mxGeometry width="50" height="50" relative="1" as="geometry">
            <mxPoint x="-210" y="480" as="sourcePoint" />
            <mxPoint x="770" y="120" as="targetPoint" />
          </mxGeometry>
        </mxCell>
        <mxCell id="3_yhiq4X4fq56zzzLjfd-31" value="Admin" style="shape=umlActor;verticalLabelPosition=bottom;verticalAlign=top;html=1;outlineConnect=0;" vertex="1" parent="1">
          <mxGeometry x="970" y="50" width="100" height="160" as="geometry" />
        </mxCell>
        <mxCell id="3_yhiq4X4fq56zzzLjfd-32" value="" style="endArrow=classic;html=1;rounded=0;entryX=0;entryY=0.4;entryDx=0;entryDy=0;entryPerimeter=0;" edge="1" parent="1" target="3_yhiq4X4fq56zzzLjfd-14">
          <mxGeometry width="50" height="50" relative="1" as="geometry">
            <mxPoint x="-210" y="470" as="sourcePoint" />
            <mxPoint x="750" y="170" as="targetPoint" />
          </mxGeometry>
        </mxCell>
        <mxCell id="3_yhiq4X4fq56zzzLjfd-33" value="" style="endArrow=classic;html=1;rounded=0;entryX=0.083;entryY=0.6;entryDx=0;entryDy=0;entryPerimeter=0;" edge="1" parent="1" target="3_yhiq4X4fq56zzzLjfd-15">
          <mxGeometry width="50" height="50" relative="1" as="geometry">
            <mxPoint x="-200" y="480" as="sourcePoint" />
            <mxPoint x="750" y="170" as="targetPoint" />
          </mxGeometry>
        </mxCell>
        <mxCell id="3_yhiq4X4fq56zzzLjfd-34" value="" style="endArrow=classic;html=1;rounded=0;exitX=0.5;exitY=0.75;exitDx=0;exitDy=0;exitPerimeter=0;entryX=0.917;entryY=0.4;entryDx=0;entryDy=0;entryPerimeter=0;" edge="1" parent="1" source="3_yhiq4X4fq56zzzLjfd-31" target="3_yhiq4X4fq56zzzLjfd-15">
          <mxGeometry width="50" height="50" relative="1" as="geometry">
            <mxPoint x="430" y="450" as="sourcePoint" />
            <mxPoint x="730" y="110" as="targetPoint" />
          </mxGeometry>
        </mxCell>
        <mxCell id="3_yhiq4X4fq56zzzLjfd-35" value="" style="endArrow=classic;html=1;rounded=0;exitX=0.6;exitY=0.563;exitDx=0;exitDy=0;exitPerimeter=0;entryX=0.917;entryY=0.6;entryDx=0;entryDy=0;entryPerimeter=0;" edge="1" parent="1" source="3_yhiq4X4fq56zzzLjfd-31" target="3_yhiq4X4fq56zzzLjfd-16">
          <mxGeometry width="50" height="50" relative="1" as="geometry">
            <mxPoint x="430" y="450" as="sourcePoint" />
            <mxPoint x="690" y="110" as="targetPoint" />
          </mxGeometry>
        </mxCell>
        <mxCell id="3_yhiq4X4fq56zzzLjfd-36" value="" style="endArrow=classic;html=1;rounded=0;entryX=1;entryY=0.6;entryDx=0;entryDy=0;entryPerimeter=0;" edge="1" parent="1" target="3_yhiq4X4fq56zzzLjfd-9">
          <mxGeometry width="50" height="50" relative="1" as="geometry">
            <mxPoint x="1050" y="130" as="sourcePoint" />
            <mxPoint x="670" y="100" as="targetPoint" />
          </mxGeometry>
        </mxCell>
        <mxCell id="3_yhiq4X4fq56zzzLjfd-37" value="Database&amp;nbsp;" style="rounded=0;whiteSpace=wrap;html=1;" vertex="1" parent="1">
          <mxGeometry x="1020" y="470" width="280" height="110" as="geometry" />
        </mxCell>
        <mxCell id="3_yhiq4X4fq56zzzLjfd-38" value="" style="endArrow=classic;html=1;rounded=0;entryX=0.833;entryY=0.8;entryDx=0;entryDy=0;entryPerimeter=0;exitX=0.786;exitY=0;exitDx=0;exitDy=0;exitPerimeter=0;" edge="1" parent="1" source="3_yhiq4X4fq56zzzLjfd-37" target="3_yhiq4X4fq56zzzLjfd-3">
          <mxGeometry width="50" height="50" relative="1" as="geometry">
            <mxPoint x="430" y="450" as="sourcePoint" />
            <mxPoint x="480" y="400" as="targetPoint" />
          </mxGeometry>
        </mxCell>
        <mxCell id="3_yhiq4X4fq56zzzLjfd-39" value="" style="endArrow=classic;html=1;rounded=0;exitX=0.571;exitY=0.091;exitDx=0;exitDy=0;exitPerimeter=0;entryX=0.917;entryY=0.8;entryDx=0;entryDy=0;entryPerimeter=0;" edge="1" parent="1" source="3_yhiq4X4fq56zzzLjfd-37" target="3_yhiq4X4fq56zzzLjfd-4">
          <mxGeometry width="50" height="50" relative="1" as="geometry">
            <mxPoint x="430" y="450" as="sourcePoint" />
            <mxPoint x="480" y="400" as="targetPoint" />
          </mxGeometry>
        </mxCell>
        <mxCell id="3_yhiq4X4fq56zzzLjfd-40" value="" style="endArrow=classic;html=1;rounded=0;entryX=0.917;entryY=0.8;entryDx=0;entryDy=0;entryPerimeter=0;exitX=0.25;exitY=0;exitDx=0;exitDy=0;exitPerimeter=0;" edge="1" parent="1" source="3_yhiq4X4fq56zzzLjfd-37" target="3_yhiq4X4fq56zzzLjfd-5">
          <mxGeometry width="50" height="50" relative="1" as="geometry">
            <mxPoint x="430" y="450" as="sourcePoint" />
            <mxPoint x="480" y="400" as="targetPoint" />
          </mxGeometry>
        </mxCell>
        <mxCell id="3_yhiq4X4fq56zzzLjfd-41" value="" style="endArrow=classic;html=1;rounded=0;exitX=0.107;exitY=0.091;exitDx=0;exitDy=0;exitPerimeter=0;" edge="1" parent="1" source="3_yhiq4X4fq56zzzLjfd-37">
          <mxGeometry width="50" height="50" relative="1" as="geometry">
            <mxPoint x="430" y="450" as="sourcePoint" />
            <mxPoint x="430" y="210" as="targetPoint" />
          </mxGeometry>
        </mxCell>
        <mxCell id="3_yhiq4X4fq56zzzLjfd-42" value="Content(Description, Caption)" style="ellipse;whiteSpace=wrap;html=1;" vertex="1" parent="1">
          <mxGeometry x="650" y="10" width="120" height="40" as="geometry" />
        </mxCell>
        <mxCell id="3_yhiq4X4fq56zzzLjfd-44" value="&amp;lt;&amp;lt;include&amp;gt;&amp;gt;" style="html=1;verticalAlign=bottom;labelBackgroundColor=none;endArrow=open;endFill=0;dashed=1;rounded=0;exitX=1;exitY=0.2;exitDx=0;exitDy=0;exitPerimeter=0;entryX=0;entryY=0.75;entryDx=0;entryDy=0;entryPerimeter=0;" edge="1" parent="1" source="3_yhiq4X4fq56zzzLjfd-4" target="3_yhiq4X4fq56zzzLjfd-42">
          <mxGeometry x="-0.4235" y="1" width="160" relative="1" as="geometry">
            <mxPoint x="340" y="410" as="sourcePoint" />
            <mxPoint x="530" y="10" as="targetPoint" />
            <Array as="points" />
            <mxPoint as="offset" />
          </mxGeometry>
        </mxCell>
        <mxCell id="3_yhiq4X4fq56zzzLjfd-45" value="Tag people, tag location" style="ellipse;whiteSpace=wrap;html=1;" vertex="1" parent="1">
          <mxGeometry x="650" y="60" width="120" height="50" as="geometry" />
        </mxCell>
        <mxCell id="3_yhiq4X4fq56zzzLjfd-46" value="&amp;lt;&amp;lt;extend &amp;gt;&amp;gt;" style="html=1;verticalAlign=bottom;labelBackgroundColor=none;endArrow=open;endFill=0;dashed=1;rounded=0;exitX=2.75;exitY=-3;exitDx=0;exitDy=0;exitPerimeter=0;" edge="1" parent="1" source="3_yhiq4X4fq56zzzLjfd-7">
          <mxGeometry width="160" relative="1" as="geometry">
            <mxPoint x="380" y="260" as="sourcePoint" />
            <mxPoint x="440" y="140" as="targetPoint" />
          </mxGeometry>
        </mxCell>
        <mxCell id="3_yhiq4X4fq56zzzLjfd-47" value="add photo, video" style="ellipse;whiteSpace=wrap;html=1;" vertex="1" parent="1">
          <mxGeometry x="660" y="120" width="120" height="50" as="geometry" />
        </mxCell>
        <mxCell id="3_yhiq4X4fq56zzzLjfd-48" value="&amp;lt;&amp;lt;include&amp;gt;&amp;gt;" style="html=1;verticalAlign=bottom;labelBackgroundColor=none;endArrow=open;endFill=0;dashed=1;rounded=0;" edge="1" parent="1">
          <mxGeometry width="160" relative="1" as="geometry">
            <mxPoint x="440" y="160" as="sourcePoint" />
            <mxPoint x="670" y="150" as="targetPoint" />
          </mxGeometry>
        </mxCell>
        <mxCell id="3_yhiq4X4fq56zzzLjfd-51" value="" style="endArrow=classic;html=1;rounded=0;exitX=0;exitY=0.455;exitDx=0;exitDy=0;exitPerimeter=0;entryX=0.917;entryY=0.8;entryDx=0;entryDy=0;entryPerimeter=0;" edge="1" parent="1" source="3_yhiq4X4fq56zzzLjfd-37" target="3_yhiq4X4fq56zzzLjfd-7">
          <mxGeometry width="50" height="50" relative="1" as="geometry">
            <mxPoint x="440" y="520" as="sourcePoint" />
            <mxPoint x="560" y="380" as="targetPoint" />
          </mxGeometry>
        </mxCell>
        <mxCell id="3_yhiq4X4fq56zzzLjfd-52" value="" style="endArrow=classic;html=1;rounded=0;exitX=0.036;exitY=0.818;exitDx=0;exitDy=0;exitPerimeter=0;entryX=0.917;entryY=0.6;entryDx=0;entryDy=0;entryPerimeter=0;" edge="1" parent="1" source="3_yhiq4X4fq56zzzLjfd-37" target="3_yhiq4X4fq56zzzLjfd-8">
          <mxGeometry width="50" height="50" relative="1" as="geometry">
            <mxPoint x="440" y="520" as="sourcePoint" />
            <mxPoint x="540" y="400" as="targetPoint" />
          </mxGeometry>
        </mxCell>
        <mxCell id="3_yhiq4X4fq56zzzLjfd-53" value="" style="endArrow=classic;html=1;rounded=0;exitX=0.179;exitY=0.909;exitDx=0;exitDy=0;exitPerimeter=0;entryX=0.917;entryY=0.2;entryDx=0;entryDy=0;entryPerimeter=0;" edge="1" parent="1" source="3_yhiq4X4fq56zzzLjfd-37" target="3_yhiq4X4fq56zzzLjfd-10">
          <mxGeometry width="50" height="50" relative="1" as="geometry">
            <mxPoint x="440" y="520" as="sourcePoint" />
            <mxPoint x="520" y="410" as="targetPoint" />
          </mxGeometry>
        </mxCell>
        <mxCell id="3_yhiq4X4fq56zzzLjfd-54" value="" style="endArrow=classic;html=1;rounded=0;" edge="1" parent="1">
          <mxGeometry width="50" height="50" relative="1" as="geometry">
            <mxPoint x="1050" y="580" as="sourcePoint" />
            <mxPoint x="440" y="520" as="targetPoint" />
          </mxGeometry>
        </mxCell>
        <mxCell id="3_yhiq4X4fq56zzzLjfd-55" value="" style="endArrow=classic;html=1;rounded=0;" edge="1" parent="1">
          <mxGeometry width="50" height="50" relative="1" as="geometry">
            <mxPoint x="1030" y="540" as="sourcePoint" />
            <mxPoint x="450" y="570" as="targetPoint" />
          </mxGeometry>
        </mxCell>
        <mxCell id="3_yhiq4X4fq56zzzLjfd-56" value="" style="endArrow=classic;html=1;rounded=0;entryX=1;entryY=0.4;entryDx=0;entryDy=0;entryPerimeter=0;" edge="1" parent="1" target="3_yhiq4X4fq56zzzLjfd-13">
          <mxGeometry width="50" height="50" relative="1" as="geometry">
            <mxPoint x="1080" y="580" as="sourcePoint" />
            <mxPoint x="650" y="770" as="targetPoint" />
          </mxGeometry>
        </mxCell>
        <mxCell id="3_yhiq4X4fq56zzzLjfd-57" value="" style="endArrow=classic;html=1;rounded=0;" edge="1" parent="1">
          <mxGeometry width="50" height="50" relative="1" as="geometry">
            <mxPoint x="1070" y="590" as="sourcePoint" />
            <mxPoint x="450" y="750" as="targetPoint" />
          </mxGeometry>
        </mxCell>
        <mxCell id="3_yhiq4X4fq56zzzLjfd-58" value="" style="endArrow=classic;html=1;rounded=0;exitX=0.393;exitY=0.909;exitDx=0;exitDy=0;exitPerimeter=0;" edge="1" parent="1" source="3_yhiq4X4fq56zzzLjfd-37">
          <mxGeometry width="50" height="50" relative="1" as="geometry">
            <mxPoint x="440" y="520" as="sourcePoint" />
            <mxPoint x="440" y="700" as="targetPoint" />
          </mxGeometry>
        </mxCell>
        <mxCell id="3_yhiq4X4fq56zzzLjfd-59" value="&amp;lt;&amp;lt;include&amp;gt;&amp;gt;" style="html=1;verticalAlign=bottom;labelBackgroundColor=none;endArrow=open;endFill=0;dashed=1;rounded=0;exitX=0.5;exitY=1;exitDx=0;exitDy=0;edgeStyle=orthogonalEdgeStyle;curved=1;flowAnimation=1;" edge="1" parent="1" source="3_yhiq4X4fq56zzzLjfd-11" target="3_yhiq4X4fq56zzzLjfd-3">
          <mxGeometry width="160" relative="1" as="geometry">
            <mxPoint x="380" y="490" as="sourcePoint" />
            <mxPoint x="130" y="430" as="targetPoint" />
            <Array as="points">
              <mxPoint x="330" y="540" />
              <mxPoint x="330" y="550" />
              <mxPoint x="150" y="550" />
              <mxPoint x="150" y="280" />
              <mxPoint x="130" y="280" />
              <mxPoint x="130" y="35" />
            </Array>
          </mxGeometry>
        </mxCell>
        <mxCell id="3_yhiq4X4fq56zzzLjfd-60" value="View FriendRequest List" style="ellipse;whiteSpace=wrap;html=1;" vertex="1" parent="1">
          <mxGeometry x="690" y="710" width="120" height="40" as="geometry" />
        </mxCell>
        <mxCell id="3_yhiq4X4fq56zzzLjfd-61" value="&amp;lt;&amp;lt;include&amp;gt;&amp;gt;" style="html=1;verticalAlign=bottom;labelBackgroundColor=none;endArrow=open;endFill=0;dashed=1;rounded=0;entryX=0.167;entryY=1;entryDx=0;entryDy=0;entryPerimeter=0;exitX=0.75;exitY=2.2;exitDx=0;exitDy=0;exitPerimeter=0;" edge="1" parent="1" source="3_yhiq4X4fq56zzzLjfd-11" target="3_yhiq4X4fq56zzzLjfd-60">
          <mxGeometry width="160" relative="1" as="geometry">
            <mxPoint x="380" y="490" as="sourcePoint" />
            <mxPoint x="540" y="490" as="targetPoint" />
          </mxGeometry>
        </mxCell>
        <mxCell id="3_yhiq4X4fq56zzzLjfd-62" value="&amp;lt;&amp;lt;include&amp;gt;&amp;gt;" style="html=1;verticalAlign=bottom;labelBackgroundColor=none;endArrow=open;endFill=0;dashed=1;rounded=0;exitX=0.167;exitY=1;exitDx=0;exitDy=0;exitPerimeter=0;" edge="1" parent="1" source="3_yhiq4X4fq56zzzLjfd-15">
          <mxGeometry width="160" relative="1" as="geometry">
            <mxPoint x="160" y="780" as="sourcePoint" />
            <mxPoint x="340" y="40" as="targetPoint" />
            <Array as="points">
              <mxPoint x="80" y="790" />
              <mxPoint x="80" y="30" />
            </Array>
          </mxGeometry>
        </mxCell>
        <mxCell id="3_yhiq4X4fq56zzzLjfd-63" value="View Post" style="ellipse;whiteSpace=wrap;html=1;" vertex="1" parent="1">
          <mxGeometry x="640" y="320" width="120" height="50" as="geometry" />
        </mxCell>
        <mxCell id="3_yhiq4X4fq56zzzLjfd-64" value="&amp;lt;&amp;lt;include&amp;gt;&amp;gt;" style="html=1;verticalAlign=bottom;labelBackgroundColor=none;endArrow=open;endFill=0;dashed=1;rounded=0;entryX=0.083;entryY=0.8;entryDx=0;entryDy=0;entryPerimeter=0;exitX=0.833;exitY=-4.4;exitDx=0;exitDy=0;exitPerimeter=0;" edge="1" parent="1" source="3_yhiq4X4fq56zzzLjfd-11" target="3_yhiq4X4fq56zzzLjfd-63">
          <mxGeometry width="160" relative="1" as="geometry">
            <mxPoint x="380" y="490" as="sourcePoint" />
            <mxPoint x="540" y="490" as="targetPoint" />
          </mxGeometry>
        </mxCell>
        <mxCell id="3_yhiq4X4fq56zzzLjfd-65" value="&amp;lt;&amp;lt;include&amp;gt;&amp;gt;" style="html=1;verticalAlign=bottom;labelBackgroundColor=none;endArrow=open;endFill=0;dashed=1;rounded=0;entryX=0.417;entryY=1;entryDx=0;entryDy=0;entryPerimeter=0;exitX=0.75;exitY=-3.2;exitDx=0;exitDy=0;exitPerimeter=0;" edge="1" parent="1" source="3_yhiq4X4fq56zzzLjfd-11" target="3_yhiq4X4fq56zzzLjfd-63">
          <mxGeometry width="160" relative="1" as="geometry">
            <mxPoint x="380" y="490" as="sourcePoint" />
            <mxPoint x="540" y="490" as="targetPoint" />
          </mxGeometry>
        </mxCell>
        <mxCell id="3_yhiq4X4fq56zzzLjfd-66" value="&amp;lt;&amp;lt;include&amp;gt;&amp;gt;" style="html=1;verticalAlign=bottom;labelBackgroundColor=none;endArrow=open;endFill=0;dashed=1;rounded=0;exitX=0.75;exitY=-2;exitDx=0;exitDy=0;exitPerimeter=0;" edge="1" parent="1" source="3_yhiq4X4fq56zzzLjfd-11">
          <mxGeometry width="160" relative="1" as="geometry">
            <mxPoint x="380" y="490" as="sourcePoint" />
            <mxPoint x="700" y="360" as="targetPoint" />
          </mxGeometry>
        </mxCell>
      </root>
    </mxGraphModel>
  </diagram>
</mxfile>
